<svg width="24" height="24" viewBox="0 0 24 24" fill="none" xmlns="http://www.w3.org/2000/svg">
<path d="M16.7333 6.85547C17.5667 6.85547 18.3556 7.17769 18.9556 7.77769C19.5444 8.36658 19.8778 9.15547 19.8778 9.99991C19.8778 10.8332 19.5556 11.6221 18.9556 12.2221L12 19.1666L5.04444 12.2221C3.82222 10.9999 3.82222 9.01102 5.04444 7.77769C5.63333 7.1888 6.42222 6.85547 7.26667 6.85547C8.1 6.85547 8.88889 7.17769 9.48889 7.77769L12 10.2888L14.5111 7.77769C15.1 7.1888 15.8889 6.85547 16.7333 6.85547ZM16.7333 4.85547C15.4222 4.85547 14.1 5.35547 13.1 6.35547L12 7.45547L10.9 6.35547C9.9 5.35547 8.57778 4.85547 7.26667 4.85547C5.95556 4.85547 4.63333 5.35547 3.63333 6.35547C1.62222 8.36658 1.62222 11.611 3.63333 13.6221L12 21.9999L20.3667 13.6332C22.3778 11.6221 22.3778 8.37769 20.3667 6.36658C19.3667 5.36658 18.0444 4.85547 16.7333 4.85547Z" fill="#3D3D3D"/>
</svg>
